<?xml version="1.0" encoding="utf-8" standalone="no"?>
<!DOCTYPE svg PUBLIC "-//W3C//DTD SVG 1.1//EN"
  "http://www.w3.org/Graphics/SVG/1.1/DTD/svg11.dtd">
<svg xmlns:xlink="http://www.w3.org/1999/xlink" width="576pt" height="360pt" viewBox="0 0 576 360" xmlns="http://www.w3.org/2000/svg" version="1.1">
 <metadata>
  <rdf:RDF xmlns:dc="http://purl.org/dc/elements/1.1/" xmlns:cc="http://creativecommons.org/ns#" xmlns:rdf="http://www.w3.org/1999/02/22-rdf-syntax-ns#">
   <cc:Work>
    <dc:type rdf:resource="http://purl.org/dc/dcmitype/StillImage"/>
    <dc:date>2025-11-02T18:05:50.195232</dc:date>
    <dc:format>image/svg+xml</dc:format>
    <dc:creator>
     <cc:Agent>
      <dc:title>Matplotlib v3.10.7, https://matplotlib.org/</dc:title>
     </cc:Agent>
    </dc:creator>
   </cc:Work>
  </rdf:RDF>
 </metadata>
 <defs>
  <style type="text/css">*{stroke-linejoin: round; stroke-linecap: butt}</style>
 </defs>
 <g id="figure_1">
  <g id="patch_1">
   <path d="M 0 360 
L 576 360 
L 576 0 
L 0 0 
z
" style="fill: #ffffff"/>
  </g>
  <g id="axes_1">
   <g id="patch_2">
    <path d="M 54.02 318.04 
L 555.254389 318.04 
L 555.254389 26.88 
L 54.02 26.88 
z
" style="fill: #ffffff"/>
   </g>
   <g id="matplotlib.axis_1">
    <g id="xtick_1">
     <g id="line2d_1">
      <path d="M 75.441146 318.04 
L 75.441146 26.88 
" clip-path="url(#p4eaf4527bc)" style="fill: none; stroke: #b0b0b0; stroke-opacity: 0.3; stroke-width: 0.8; stroke-linecap: square"/>
     </g>
     <g id="line2d_2">
      <defs>
       <path id="m015e88bf3e" d="M 0 0 
L 0 3.5 
" style="stroke: #000000; stroke-width: 0.8"/>
      </defs>
      <g>
       <use xlink:href="#m015e88bf3e" x="75.441146" y="318.04" style="stroke: #000000; stroke-width: 0.8"/>
      </g>
     </g>
     <g id="text_1">
      <!-- 0 -->
      <g transform="translate(72.259896 332.638438) scale(0.1 -0.1)">
       <defs>
        <path id="DejaVuSans-30" d="M 2034 4250 
Q 1547 4250 1301 3770 
Q 1056 3291 1056 2328 
Q 1056 1369 1301 889 
Q 1547 409 2034 409 
Q 2525 409 2770 889 
Q 3016 1369 3016 2328 
Q 3016 3291 2770 3770 
Q 2525 4250 2034 4250 
z
M 2034 4750 
Q 2819 4750 3233 4129 
Q 3647 3509 3647 2328 
Q 3647 1150 3233 529 
Q 2819 -91 2034 -91 
Q 1250 -91 836 529 
Q 422 1150 422 2328 
Q 422 3509 836 4129 
Q 1250 4750 2034 4750 
z
" transform="scale(0.015625)"/>
       </defs>
       <use xlink:href="#DejaVuSans-30"/>
      </g>
     </g>
    </g>
    <g id="xtick_2">
     <g id="line2d_3">
      <path d="M 143.552899 318.04 
L 143.552899 26.88 
" clip-path="url(#p4eaf4527bc)" style="fill: none; stroke: #b0b0b0; stroke-opacity: 0.3; stroke-width: 0.8; stroke-linecap: square"/>
     </g>
     <g id="line2d_4">
      <g>
       <use xlink:href="#m015e88bf3e" x="143.552899" y="318.04" style="stroke: #000000; stroke-width: 0.8"/>
      </g>
     </g>
     <g id="text_2">
      <!-- 200 -->
      <g transform="translate(134.009149 332.638438) scale(0.1 -0.1)">
       <defs>
        <path id="DejaVuSans-32" d="M 1228 531 
L 3431 531 
L 3431 0 
L 469 0 
L 469 531 
Q 828 903 1448 1529 
Q 2069 2156 2228 2338 
Q 2531 2678 2651 2914 
Q 2772 3150 2772 3378 
Q 2772 3750 2511 3984 
Q 2250 4219 1831 4219 
Q 1534 4219 1204 4116 
Q 875 4013 500 3803 
L 500 4441 
Q 881 4594 1212 4672 
Q 1544 4750 1819 4750 
Q 2544 4750 2975 4387 
Q 3406 4025 3406 3419 
Q 3406 3131 3298 2873 
Q 3191 2616 2906 2266 
Q 2828 2175 2409 1742 
Q 1991 1309 1228 531 
z
" transform="scale(0.015625)"/>
       </defs>
       <use xlink:href="#DejaVuSans-32"/>
       <use xlink:href="#DejaVuSans-30" transform="translate(63.623047 0)"/>
       <use xlink:href="#DejaVuSans-30" transform="translate(127.246094 0)"/>
      </g>
     </g>
    </g>
    <g id="xtick_3">
     <g id="line2d_5">
      <path d="M 211.664652 318.04 
L 211.664652 26.88 
" clip-path="url(#p4eaf4527bc)" style="fill: none; stroke: #b0b0b0; stroke-opacity: 0.3; stroke-width: 0.8; stroke-linecap: square"/>
     </g>
     <g id="line2d_6">
      <g>
       <use xlink:href="#m015e88bf3e" x="211.664652" y="318.04" style="stroke: #000000; stroke-width: 0.8"/>
      </g>
     </g>
     <g id="text_3">
      <!-- 400 -->
      <g transform="translate(202.120902 332.638438) scale(0.1 -0.1)">
       <defs>
        <path id="DejaVuSans-34" d="M 2419 4116 
L 825 1625 
L 2419 1625 
L 2419 4116 
z
M 2253 4666 
L 3047 4666 
L 3047 1625 
L 3713 1625 
L 3713 1100 
L 3047 1100 
L 3047 0 
L 2419 0 
L 2419 1100 
L 313 1100 
L 313 1709 
L 2253 4666 
z
" transform="scale(0.015625)"/>
       </defs>
       <use xlink:href="#DejaVuSans-34"/>
       <use xlink:href="#DejaVuSans-30" transform="translate(63.623047 0)"/>
       <use xlink:href="#DejaVuSans-30" transform="translate(127.246094 0)"/>
      </g>
     </g>
    </g>
    <g id="xtick_4">
     <g id="line2d_7">
      <path d="M 279.776404 318.04 
L 279.776404 26.88 
" clip-path="url(#p4eaf4527bc)" style="fill: none; stroke: #b0b0b0; stroke-opacity: 0.3; stroke-width: 0.8; stroke-linecap: square"/>
     </g>
     <g id="line2d_8">
      <g>
       <use xlink:href="#m015e88bf3e" x="279.776404" y="318.04" style="stroke: #000000; stroke-width: 0.8"/>
      </g>
     </g>
     <g id="text_4">
      <!-- 600 -->
      <g transform="translate(270.232654 332.638438) scale(0.1 -0.1)">
       <defs>
        <path id="DejaVuSans-36" d="M 2113 2584 
Q 1688 2584 1439 2293 
Q 1191 2003 1191 1497 
Q 1191 994 1439 701 
Q 1688 409 2113 409 
Q 2538 409 2786 701 
Q 3034 994 3034 1497 
Q 3034 2003 2786 2293 
Q 2538 2584 2113 2584 
z
M 3366 4563 
L 3366 3988 
Q 3128 4100 2886 4159 
Q 2644 4219 2406 4219 
Q 1781 4219 1451 3797 
Q 1122 3375 1075 2522 
Q 1259 2794 1537 2939 
Q 1816 3084 2150 3084 
Q 2853 3084 3261 2657 
Q 3669 2231 3669 1497 
Q 3669 778 3244 343 
Q 2819 -91 2113 -91 
Q 1303 -91 875 529 
Q 447 1150 447 2328 
Q 447 3434 972 4092 
Q 1497 4750 2381 4750 
Q 2619 4750 2861 4703 
Q 3103 4656 3366 4563 
z
" transform="scale(0.015625)"/>
       </defs>
       <use xlink:href="#DejaVuSans-36"/>
       <use xlink:href="#DejaVuSans-30" transform="translate(63.623047 0)"/>
       <use xlink:href="#DejaVuSans-30" transform="translate(127.246094 0)"/>
      </g>
     </g>
    </g>
    <g id="xtick_5">
     <g id="line2d_9">
      <path d="M 347.888157 318.04 
L 347.888157 26.88 
" clip-path="url(#p4eaf4527bc)" style="fill: none; stroke: #b0b0b0; stroke-opacity: 0.3; stroke-width: 0.8; stroke-linecap: square"/>
     </g>
     <g id="line2d_10">
      <g>
       <use xlink:href="#m015e88bf3e" x="347.888157" y="318.04" style="stroke: #000000; stroke-width: 0.8"/>
      </g>
     </g>
     <g id="text_5">
      <!-- 800 -->
      <g transform="translate(338.344407 332.638438) scale(0.1 -0.1)">
       <defs>
        <path id="DejaVuSans-38" d="M 2034 2216 
Q 1584 2216 1326 1975 
Q 1069 1734 1069 1313 
Q 1069 891 1326 650 
Q 1584 409 2034 409 
Q 2484 409 2743 651 
Q 3003 894 3003 1313 
Q 3003 1734 2745 1975 
Q 2488 2216 2034 2216 
z
M 1403 2484 
Q 997 2584 770 2862 
Q 544 3141 544 3541 
Q 544 4100 942 4425 
Q 1341 4750 2034 4750 
Q 2731 4750 3128 4425 
Q 3525 4100 3525 3541 
Q 3525 3141 3298 2862 
Q 3072 2584 2669 2484 
Q 3125 2378 3379 2068 
Q 3634 1759 3634 1313 
Q 3634 634 3220 271 
Q 2806 -91 2034 -91 
Q 1263 -91 848 271 
Q 434 634 434 1313 
Q 434 1759 690 2068 
Q 947 2378 1403 2484 
z
M 1172 3481 
Q 1172 3119 1398 2916 
Q 1625 2713 2034 2713 
Q 2441 2713 2670 2916 
Q 2900 3119 2900 3481 
Q 2900 3844 2670 4047 
Q 2441 4250 2034 4250 
Q 1625 4250 1398 4047 
Q 1172 3844 1172 3481 
z
" transform="scale(0.015625)"/>
       </defs>
       <use xlink:href="#DejaVuSans-38"/>
       <use xlink:href="#DejaVuSans-30" transform="translate(63.623047 0)"/>
       <use xlink:href="#DejaVuSans-30" transform="translate(127.246094 0)"/>
      </g>
     </g>
    </g>
    <g id="xtick_6">
     <g id="line2d_11">
      <path d="M 415.99991 318.04 
L 415.99991 26.88 
" clip-path="url(#p4eaf4527bc)" style="fill: none; stroke: #b0b0b0; stroke-opacity: 0.3; stroke-width: 0.8; stroke-linecap: square"/>
     </g>
     <g id="line2d_12">
      <g>
       <use xlink:href="#m015e88bf3e" x="415.99991" y="318.04" style="stroke: #000000; stroke-width: 0.8"/>
      </g>
     </g>
     <g id="text_6">
      <!-- 1000 -->
      <g transform="translate(403.27491 332.638438) scale(0.1 -0.1)">
       <defs>
        <path id="DejaVuSans-31" d="M 794 531 
L 1825 531 
L 1825 4091 
L 703 3866 
L 703 4441 
L 1819 4666 
L 2450 4666 
L 2450 531 
L 3481 531 
L 3481 0 
L 794 0 
L 794 531 
z
" transform="scale(0.015625)"/>
       </defs>
       <use xlink:href="#DejaVuSans-31"/>
       <use xlink:href="#DejaVuSans-30" transform="translate(63.623047 0)"/>
       <use xlink:href="#DejaVuSans-30" transform="translate(127.246094 0)"/>
       <use xlink:href="#DejaVuSans-30" transform="translate(190.869141 0)"/>
      </g>
     </g>
    </g>
    <g id="xtick_7">
     <g id="line2d_13">
      <path d="M 484.111663 318.04 
L 484.111663 26.88 
" clip-path="url(#p4eaf4527bc)" style="fill: none; stroke: #b0b0b0; stroke-opacity: 0.3; stroke-width: 0.8; stroke-linecap: square"/>
     </g>
     <g id="line2d_14">
      <g>
       <use xlink:href="#m015e88bf3e" x="484.111663" y="318.04" style="stroke: #000000; stroke-width: 0.8"/>
      </g>
     </g>
     <g id="text_7">
      <!-- 1200 -->
      <g transform="translate(471.386663 332.638438) scale(0.1 -0.1)">
       <use xlink:href="#DejaVuSans-31"/>
       <use xlink:href="#DejaVuSans-32" transform="translate(63.623047 0)"/>
       <use xlink:href="#DejaVuSans-30" transform="translate(127.246094 0)"/>
       <use xlink:href="#DejaVuSans-30" transform="translate(190.869141 0)"/>
      </g>
     </g>
    </g>
    <g id="xtick_8">
     <g id="line2d_15">
      <path d="M 552.223416 318.04 
L 552.223416 26.88 
" clip-path="url(#p4eaf4527bc)" style="fill: none; stroke: #b0b0b0; stroke-opacity: 0.3; stroke-width: 0.8; stroke-linecap: square"/>
     </g>
     <g id="line2d_16">
      <g>
       <use xlink:href="#m015e88bf3e" x="552.223416" y="318.04" style="stroke: #000000; stroke-width: 0.8"/>
      </g>
     </g>
     <g id="text_8">
      <!-- 1400 -->
      <g transform="translate(539.498416 332.638438) scale(0.1 -0.1)">
       <use xlink:href="#DejaVuSans-31"/>
       <use xlink:href="#DejaVuSans-34" transform="translate(63.623047 0)"/>
       <use xlink:href="#DejaVuSans-30" transform="translate(127.246094 0)"/>
       <use xlink:href="#DejaVuSans-30" transform="translate(190.869141 0)"/>
      </g>
     </g>
    </g>
    <g id="text_9">
     <!-- Довжина повідомлення, байт -->
     <g transform="translate(226.791101 346.316563) scale(0.1 -0.1)">
      <defs>
       <path id="DejaVuSans-414" d="M 1459 531 
L 3522 531 
L 3522 4134 
L 2006 4134 
L 2006 3472 
Q 2006 1913 1656 878 
Q 1584 666 1459 531 
z
M 538 531 
Q 956 728 1075 1103 
Q 1378 2066 1378 3784 
L 1378 4666 
L 4153 4666 
L 4153 531 
L 4684 531 
L 4684 -1003 
L 4153 -1003 
L 4153 0 
L 847 0 
L 847 -1003 
L 316 -1003 
L 316 531 
L 538 531 
z
" transform="scale(0.015625)"/>
       <path id="DejaVuSans-43e" d="M 1959 3097 
Q 1497 3097 1228 2736 
Q 959 2375 959 1747 
Q 959 1119 1226 758 
Q 1494 397 1959 397 
Q 2419 397 2687 759 
Q 2956 1122 2956 1747 
Q 2956 2369 2687 2733 
Q 2419 3097 1959 3097 
z
M 1959 3584 
Q 2709 3584 3137 3096 
Q 3566 2609 3566 1747 
Q 3566 888 3137 398 
Q 2709 -91 1959 -91 
Q 1206 -91 779 398 
Q 353 888 353 1747 
Q 353 2609 779 3096 
Q 1206 3584 1959 3584 
z
" transform="scale(0.015625)"/>
       <path id="DejaVuSans-432" d="M 1156 1613 
L 1156 459 
L 1975 459 
Q 2369 459 2575 607 
Q 2781 756 2781 1038 
Q 2781 1319 2575 1466 
Q 2369 1613 1975 1613 
L 1156 1613 
z
M 1156 3041 
L 1156 2072 
L 1913 2072 
Q 2238 2072 2444 2201 
Q 2650 2331 2650 2563 
Q 2650 2794 2444 2917 
Q 2238 3041 1913 3041 
L 1156 3041 
z
M 581 3500 
L 1950 3500 
Q 2566 3500 2897 3275 
Q 3228 3050 3228 2634 
Q 3228 2313 3059 2123 
Q 2891 1934 2559 1888 
Q 2956 1813 3175 1575 
Q 3394 1338 3394 981 
Q 3394 513 3033 256 
Q 2672 0 2003 0 
L 581 0 
L 581 3500 
z
" transform="scale(0.015625)"/>
       <path id="DejaVuSans-436" d="M 2597 3500 
L 3169 3500 
L 3169 1856 
L 4697 3500 
L 5366 3500 
L 4109 2153 
L 5547 0 
L 4931 0 
L 3753 1769 
L 3169 1141 
L 3169 0 
L 2597 0 
L 2597 1141 
L 2013 1769 
L 834 0 
L 219 0 
L 1656 2153 
L 400 3500 
L 1069 3500 
L 2597 1856 
L 2597 3500 
z
" transform="scale(0.015625)"/>
       <path id="DejaVuSans-438" d="M 3578 3500 
L 3578 0 
L 3006 0 
L 3006 2809 
L 1319 0 
L 581 0 
L 581 3500 
L 1153 3500 
L 1153 697 
L 2838 3500 
L 3578 3500 
z
" transform="scale(0.015625)"/>
       <path id="DejaVuSans-43d" d="M 581 3500 
L 1159 3500 
L 1159 2072 
L 3025 2072 
L 3025 3500 
L 3603 3500 
L 3603 0 
L 3025 0 
L 3025 1613 
L 1159 1613 
L 1159 0 
L 581 0 
L 581 3500 
z
" transform="scale(0.015625)"/>
       <path id="DejaVuSans-430" d="M 2194 1759 
Q 1497 1759 1228 1600 
Q 959 1441 959 1056 
Q 959 750 1161 570 
Q 1363 391 1709 391 
Q 2188 391 2477 730 
Q 2766 1069 2766 1631 
L 2766 1759 
L 2194 1759 
z
M 3341 1997 
L 3341 0 
L 2766 0 
L 2766 531 
Q 2569 213 2275 61 
Q 1981 -91 1556 -91 
Q 1019 -91 701 211 
Q 384 513 384 1019 
Q 384 1609 779 1909 
Q 1175 2209 1959 2209 
L 2766 2209 
L 2766 2266 
Q 2766 2663 2505 2880 
Q 2244 3097 1772 3097 
Q 1472 3097 1187 3025 
Q 903 2953 641 2809 
L 641 3341 
Q 956 3463 1253 3523 
Q 1550 3584 1831 3584 
Q 2591 3584 2966 3190 
Q 3341 2797 3341 1997 
z
" transform="scale(0.015625)"/>
       <path id="DejaVuSans-20" transform="scale(0.015625)"/>
       <path id="DejaVuSans-43f" d="M 3603 3500 
L 3603 0 
L 3025 0 
L 3025 3041 
L 1159 3041 
L 1159 0 
L 581 0 
L 581 3500 
L 3603 3500 
z
" transform="scale(0.015625)"/>
       <path id="DejaVuSans-456" d="M 603 3500 
L 1178 3500 
L 1178 0 
L 603 0 
L 603 3500 
z
M 603 4863 
L 1178 4863 
L 1178 4134 
L 603 4134 
L 603 4863 
z
" transform="scale(0.015625)"/>
       <path id="DejaVuSans-434" d="M 1384 459 
L 3053 459 
L 3053 3041 
L 1844 3041 
L 1844 2603 
Q 1844 1316 1475 628 
L 1384 459 
z
M 550 459 
Q 834 584 959 850 
Q 1266 1509 1266 2838 
L 1266 3500 
L 3631 3500 
L 3631 459 
L 4091 459 
L 4091 -884 
L 3631 -884 
L 3631 0 
L 794 0 
L 794 -884 
L 334 -884 
L 334 459 
L 550 459 
z
" transform="scale(0.015625)"/>
       <path id="DejaVuSans-43c" d="M 581 3500 
L 1422 3500 
L 2416 1156 
L 3413 3500 
L 4247 3500 
L 4247 0 
L 3669 0 
L 3669 2950 
L 2703 672 
L 2128 672 
L 1159 2950 
L 1159 0 
L 581 0 
L 581 3500 
z
" transform="scale(0.015625)"/>
       <path id="DejaVuSans-43b" d="M 238 0 
L 238 478 
Q 806 566 981 959 
Q 1194 1513 1194 2928 
L 1194 3500 
L 3559 3500 
L 3559 0 
L 2984 0 
L 2984 3041 
L 1769 3041 
L 1769 2694 
Q 1769 1344 1494 738 
Q 1200 91 238 0 
z
" transform="scale(0.015625)"/>
       <path id="DejaVuSans-435" d="M 3597 1894 
L 3597 1613 
L 953 1613 
Q 991 1019 1311 708 
Q 1631 397 2203 397 
Q 2534 397 2845 478 
Q 3156 559 3463 722 
L 3463 178 
Q 3153 47 2828 -22 
Q 2503 -91 2169 -91 
Q 1331 -91 842 396 
Q 353 884 353 1716 
Q 353 2575 817 3079 
Q 1281 3584 2069 3584 
Q 2775 3584 3186 3129 
Q 3597 2675 3597 1894 
z
M 3022 2063 
Q 3016 2534 2758 2815 
Q 2500 3097 2075 3097 
Q 1594 3097 1305 2825 
Q 1016 2553 972 2059 
L 3022 2063 
z
" transform="scale(0.015625)"/>
       <path id="DejaVuSans-44f" d="M 1181 2491 
Q 1181 2231 1381 2084 
Q 1581 1938 1953 1938 
L 2728 1938 
L 2728 3041 
L 1953 3041 
Q 1581 3041 1381 2897 
Q 1181 2753 1181 2491 
z
M 363 0 
L 1431 1534 
Q 1069 1616 828 1830 
Q 588 2044 588 2491 
Q 588 2997 923 3248 
Q 1259 3500 1938 3500 
L 3306 3500 
L 3306 0 
L 2728 0 
L 2728 1478 
L 2013 1478 
L 981 0 
L 363 0 
z
" transform="scale(0.015625)"/>
       <path id="DejaVuSans-2c" d="M 750 794 
L 1409 794 
L 1409 256 
L 897 -744 
L 494 -744 
L 750 256 
L 750 794 
z
" transform="scale(0.015625)"/>
       <path id="DejaVuSans-431" d="M 1991 3584 
Q 2741 3584 3169 3096 
Q 3597 2609 3597 1747 
Q 3597 888 3169 398 
Q 2741 -91 1991 -91 
Q 1238 -91 822 384 
Q 406 859 384 1747 
L 366 2463 
Q 350 2834 350 2963 
Q 350 3463 531 3831 
Q 816 4409 1308 4659 
Q 1800 4909 2625 4916 
Q 3006 4919 3175 4972 
L 3334 4516 
Q 3181 4453 3041 4450 
L 2259 4397 
Q 1866 4369 1628 4231 
Q 1006 3866 947 3388 
L 925 3213 
Q 1331 3584 1991 3584 
z
M 1991 3097 
Q 1528 3097 1259 2736 
Q 991 2375 991 1747 
Q 991 1119 1258 758 
Q 1525 397 1991 397 
Q 2450 397 2719 759 
Q 2988 1122 2988 1747 
Q 2988 2369 2719 2733 
Q 2450 3097 1991 3097 
z
" transform="scale(0.015625)"/>
       <path id="DejaVuSans-439" d="M 3578 3500 
L 3578 0 
L 3006 0 
L 3006 2809 
L 1319 0 
L 581 0 
L 581 3500 
L 1153 3500 
L 1153 697 
L 2838 3500 
L 3578 3500 
z
M 1102 4833 
L 1471 4833 
Q 1505 4599 1656 4481 
Q 1808 4364 2080 4364 
Q 2349 4364 2499 4480 
Q 2649 4596 2689 4833 
L 3058 4833 
Q 3027 4386 2780 4161 
Q 2533 3936 2080 3936 
Q 1627 3936 1380 4161 
Q 1133 4386 1102 4833 
z
" transform="scale(0.015625)"/>
       <path id="DejaVuSans-442" d="M 188 3500 
L 3541 3500 
L 3541 3041 
L 2147 3041 
L 2147 0 
L 1581 0 
L 1581 3041 
L 188 3041 
L 188 3500 
z
" transform="scale(0.015625)"/>
      </defs>
      <use xlink:href="#DejaVuSans-414"/>
      <use xlink:href="#DejaVuSans-43e" transform="translate(78.125 0)"/>
      <use xlink:href="#DejaVuSans-432" transform="translate(139.306641 0)"/>
      <use xlink:href="#DejaVuSans-436" transform="translate(198.242188 0)"/>
      <use xlink:href="#DejaVuSans-438" transform="translate(288.330078 0)"/>
      <use xlink:href="#DejaVuSans-43d" transform="translate(353.320312 0)"/>
      <use xlink:href="#DejaVuSans-430" transform="translate(418.701172 0)"/>
      <use xlink:href="#DejaVuSans-20" transform="translate(479.980469 0)"/>
      <use xlink:href="#DejaVuSans-43f" transform="translate(511.767578 0)"/>
      <use xlink:href="#DejaVuSans-43e" transform="translate(577.148438 0)"/>
      <use xlink:href="#DejaVuSans-432" transform="translate(638.330078 0)"/>
      <use xlink:href="#DejaVuSans-456" transform="translate(697.265625 0)"/>
      <use xlink:href="#DejaVuSans-434" transform="translate(725.048828 0)"/>
      <use xlink:href="#DejaVuSans-43e" transform="translate(794.189453 0)"/>
      <use xlink:href="#DejaVuSans-43c" transform="translate(855.371094 0)"/>
      <use xlink:href="#DejaVuSans-43b" transform="translate(930.810547 0)"/>
      <use xlink:href="#DejaVuSans-435" transform="translate(994.726562 0)"/>
      <use xlink:href="#DejaVuSans-43d" transform="translate(1056.25 0)"/>
      <use xlink:href="#DejaVuSans-43d" transform="translate(1121.630859 0)"/>
      <use xlink:href="#DejaVuSans-44f" transform="translate(1187.011719 0)"/>
      <use xlink:href="#DejaVuSans-2c" transform="translate(1247.167969 0)"/>
      <use xlink:href="#DejaVuSans-20" transform="translate(1278.955078 0)"/>
      <use xlink:href="#DejaVuSans-431" transform="translate(1310.742188 0)"/>
      <use xlink:href="#DejaVuSans-430" transform="translate(1372.412109 0)"/>
      <use xlink:href="#DejaVuSans-439" transform="translate(1433.691406 0)"/>
      <use xlink:href="#DejaVuSans-442" transform="translate(1498.681641 0)"/>
     </g>
    </g>
   </g>
   <g id="matplotlib.axis_2">
    <g id="ytick_1">
     <g id="line2d_17">
      <path d="M 54.02 255.203659 
L 555.254389 255.203659 
" clip-path="url(#p4eaf4527bc)" style="fill: none; stroke: #b0b0b0; stroke-opacity: 0.3; stroke-width: 0.8; stroke-linecap: square"/>
     </g>
     <g id="line2d_18">
      <defs>
       <path id="ma2519bd664" d="M 0 0 
L -3.5 0 
" style="stroke: #000000; stroke-width: 0.8"/>
      </defs>
      <g>
       <use xlink:href="#ma2519bd664" x="54.02" y="255.203659" style="stroke: #000000; stroke-width: 0.8"/>
      </g>
     </g>
     <g id="text_10">
      <!-- 0.05 -->
      <g transform="translate(24.754375 259.002878) scale(0.1 -0.1)">
       <defs>
        <path id="DejaVuSans-2e" d="M 684 794 
L 1344 794 
L 1344 0 
L 684 0 
L 684 794 
z
" transform="scale(0.015625)"/>
        <path id="DejaVuSans-35" d="M 691 4666 
L 3169 4666 
L 3169 4134 
L 1269 4134 
L 1269 2991 
Q 1406 3038 1543 3061 
Q 1681 3084 1819 3084 
Q 2600 3084 3056 2656 
Q 3513 2228 3513 1497 
Q 3513 744 3044 326 
Q 2575 -91 1722 -91 
Q 1428 -91 1123 -41 
Q 819 9 494 109 
L 494 744 
Q 775 591 1075 516 
Q 1375 441 1709 441 
Q 2250 441 2565 725 
Q 2881 1009 2881 1497 
Q 2881 1984 2565 2268 
Q 2250 2553 1709 2553 
Q 1456 2553 1204 2497 
Q 953 2441 691 2322 
L 691 4666 
z
" transform="scale(0.015625)"/>
       </defs>
       <use xlink:href="#DejaVuSans-30"/>
       <use xlink:href="#DejaVuSans-2e" transform="translate(63.623047 0)"/>
       <use xlink:href="#DejaVuSans-30" transform="translate(95.410156 0)"/>
       <use xlink:href="#DejaVuSans-35" transform="translate(159.033203 0)"/>
      </g>
     </g>
    </g>
    <g id="ytick_2">
     <g id="line2d_19">
      <path d="M 54.02 191.774254 
L 555.254389 191.774254 
" clip-path="url(#p4eaf4527bc)" style="fill: none; stroke: #b0b0b0; stroke-opacity: 0.3; stroke-width: 0.8; stroke-linecap: square"/>
     </g>
     <g id="line2d_20">
      <g>
       <use xlink:href="#ma2519bd664" x="54.02" y="191.774254" style="stroke: #000000; stroke-width: 0.8"/>
      </g>
     </g>
     <g id="text_11">
      <!-- 0.10 -->
      <g transform="translate(24.754375 195.573473) scale(0.1 -0.1)">
       <use xlink:href="#DejaVuSans-30"/>
       <use xlink:href="#DejaVuSans-2e" transform="translate(63.623047 0)"/>
       <use xlink:href="#DejaVuSans-31" transform="translate(95.410156 0)"/>
       <use xlink:href="#DejaVuSans-30" transform="translate(159.033203 0)"/>
      </g>
     </g>
    </g>
    <g id="ytick_3">
     <g id="line2d_21">
      <path d="M 54.02 128.344848 
L 555.254389 128.344848 
" clip-path="url(#p4eaf4527bc)" style="fill: none; stroke: #b0b0b0; stroke-opacity: 0.3; stroke-width: 0.8; stroke-linecap: square"/>
     </g>
     <g id="line2d_22">
      <g>
       <use xlink:href="#ma2519bd664" x="54.02" y="128.344848" style="stroke: #000000; stroke-width: 0.8"/>
      </g>
     </g>
     <g id="text_12">
      <!-- 0.15 -->
      <g transform="translate(24.754375 132.144067) scale(0.1 -0.1)">
       <use xlink:href="#DejaVuSans-30"/>
       <use xlink:href="#DejaVuSans-2e" transform="translate(63.623047 0)"/>
       <use xlink:href="#DejaVuSans-31" transform="translate(95.410156 0)"/>
       <use xlink:href="#DejaVuSans-35" transform="translate(159.033203 0)"/>
      </g>
     </g>
    </g>
    <g id="ytick_4">
     <g id="line2d_23">
      <path d="M 54.02 64.915443 
L 555.254389 64.915443 
" clip-path="url(#p4eaf4527bc)" style="fill: none; stroke: #b0b0b0; stroke-opacity: 0.3; stroke-width: 0.8; stroke-linecap: square"/>
     </g>
     <g id="line2d_24">
      <g>
       <use xlink:href="#ma2519bd664" x="54.02" y="64.915443" style="stroke: #000000; stroke-width: 0.8"/>
      </g>
     </g>
     <g id="text_13">
      <!-- 0.20 -->
      <g transform="translate(24.754375 68.714662) scale(0.1 -0.1)">
       <use xlink:href="#DejaVuSans-30"/>
       <use xlink:href="#DejaVuSans-2e" transform="translate(63.623047 0)"/>
       <use xlink:href="#DejaVuSans-32" transform="translate(95.410156 0)"/>
       <use xlink:href="#DejaVuSans-30" transform="translate(159.033203 0)"/>
      </g>
     </g>
    </g>
    <g id="text_14">
     <!-- Час, мс (медіана) -->
     <g transform="translate(18.674688 217.982656) rotate(-90) scale(0.1 -0.1)">
      <defs>
       <path id="DejaVuSans-427" d="M 3125 0 
L 3125 1913 
L 1822 1913 
Q 1241 1913 894 2277 
Q 547 2641 547 3384 
L 547 4666 
L 1175 4666 
L 1175 3434 
Q 1175 2938 1369 2691 
Q 1563 2444 1950 2444 
L 3125 2444 
L 3125 4666 
L 3759 4666 
L 3759 0 
L 3125 0 
z
" transform="scale(0.015625)"/>
       <path id="DejaVuSans-441" d="M 3122 3366 
L 3122 2828 
Q 2878 2963 2633 3030 
Q 2388 3097 2138 3097 
Q 1578 3097 1268 2742 
Q 959 2388 959 1747 
Q 959 1106 1268 751 
Q 1578 397 2138 397 
Q 2388 397 2633 464 
Q 2878 531 3122 666 
L 3122 134 
Q 2881 22 2623 -34 
Q 2366 -91 2075 -91 
Q 1284 -91 818 406 
Q 353 903 353 1747 
Q 353 2603 823 3093 
Q 1294 3584 2113 3584 
Q 2378 3584 2631 3529 
Q 2884 3475 3122 3366 
z
" transform="scale(0.015625)"/>
       <path id="DejaVuSans-28" d="M 1984 4856 
Q 1566 4138 1362 3434 
Q 1159 2731 1159 2009 
Q 1159 1288 1364 580 
Q 1569 -128 1984 -844 
L 1484 -844 
Q 1016 -109 783 600 
Q 550 1309 550 2009 
Q 550 2706 781 3412 
Q 1013 4119 1484 4856 
L 1984 4856 
z
" transform="scale(0.015625)"/>
       <path id="DejaVuSans-29" d="M 513 4856 
L 1013 4856 
Q 1481 4119 1714 3412 
Q 1947 2706 1947 2009 
Q 1947 1309 1714 600 
Q 1481 -109 1013 -844 
L 513 -844 
Q 928 -128 1133 580 
Q 1338 1288 1338 2009 
Q 1338 2731 1133 3434 
Q 928 4138 513 4856 
z
" transform="scale(0.015625)"/>
      </defs>
      <use xlink:href="#DejaVuSans-427"/>
      <use xlink:href="#DejaVuSans-430" transform="translate(68.554688 0)"/>
      <use xlink:href="#DejaVuSans-441" transform="translate(129.833984 0)"/>
      <use xlink:href="#DejaVuSans-2c" transform="translate(184.814453 0)"/>
      <use xlink:href="#DejaVuSans-20" transform="translate(216.601562 0)"/>
      <use xlink:href="#DejaVuSans-43c" transform="translate(248.388672 0)"/>
      <use xlink:href="#DejaVuSans-441" transform="translate(323.828125 0)"/>
      <use xlink:href="#DejaVuSans-20" transform="translate(378.808594 0)"/>
      <use xlink:href="#DejaVuSans-28" transform="translate(410.595703 0)"/>
      <use xlink:href="#DejaVuSans-43c" transform="translate(449.609375 0)"/>
      <use xlink:href="#DejaVuSans-435" transform="translate(525.048828 0)"/>
      <use xlink:href="#DejaVuSans-434" transform="translate(586.572266 0)"/>
      <use xlink:href="#DejaVuSans-456" transform="translate(655.712891 0)"/>
      <use xlink:href="#DejaVuSans-430" transform="translate(683.496094 0)"/>
      <use xlink:href="#DejaVuSans-43d" transform="translate(744.775391 0)"/>
      <use xlink:href="#DejaVuSans-430" transform="translate(810.15625 0)"/>
      <use xlink:href="#DejaVuSans-29" transform="translate(871.435547 0)"/>
     </g>
    </g>
   </g>
   <g id="line2d_25">
    <path d="M 76.803381 304.805455 
L 77.14394 304.298019 
L 77.484499 304.424878 
L 77.825058 304.424878 
L 78.165616 304.551737 
L 78.506175 304.298019 
L 78.846734 304.678596 
L 79.187293 300.682543 
L 79.527851 304.17116 
L 79.86841 304.17116 
L 80.208969 303.790584 
L 80.549528 303.917443 
L 80.890086 303.790584 
L 81.230645 304.17116 
L 81.571204 304.551737 
L 81.911763 300.619114 
L 82.252322 300.745973 
L 82.59288 300.99969 
L 82.933439 300.745973 
L 83.273998 300.872831 
L 83.614557 300.492255 
L 83.955115 301.126549 
L 84.295674 301.887702 
L 84.636233 298.969949 
L 84.976792 299.223667 
L 85.31735 298.652802 
L 85.657909 298.969949 
L 85.998468 298.969949 
L 86.339027 298.969949 
L 86.679585 299.096808 
L 87.020144 299.350526 
L 87.360703 296.940208 
L 87.701262 296.432773 
L 88.04182 296.940208 
L 88.382379 296.940208 
L 88.722938 297.003638 
L 89.063497 297.067067 
L 89.404056 297.193926 
L 89.744614 298.716232 
L 90.085173 295.67162 
L 90.425732 295.417903 
L 90.766291 295.291044 
L 91.106849 295.544761 
L 91.447408 295.67162 
L 91.787967 295.798479 
L 92.128526 295.925338 
L 92.469084 296.813349 
L 92.809643 294.022456 
L 93.150202 293.51502 
L 94.171878 294.149314 
L 94.512437 294.022456 
L 94.852996 294.022456 
L 95.193555 292.880726 
L 95.874672 291.865856 
L 96.215231 291.865856 
L 96.896348 291.865856 
L 97.236907 290.34355 
L 97.577466 291.612138 
L 97.918025 292.373291 
L 98.599142 290.533838 
L 98.939701 289.962974 
L 99.28026 289.392109 
L 99.620818 290.470409 
L 99.961377 290.216691 
L 100.301936 290.216691 
L 100.642495 290.34355 
L 101.323612 289.074962 
L 102.00473 280.638851 
L 102.345289 289.011533 
L 104.388641 285.01548 
L 105.410317 287.679515 
L 106.091435 287.298939 
L 106.431994 284.444615 
L 107.113111 285.776633 
L 108.134788 285.142339 
L 109.497023 284.381186 
L 111.199816 282.351445 
L 113.243169 282.985739 
L 118.35155 279.433692 
L 124.481608 276.389081 
L 126.524961 275.754787 
L 127.546637 275.754787 
L 129.249431 273.851905 
L 135.720047 270.743864 
L 151.385751 262.56147 
L 153.769662 260.151153 
L 160.580837 257.613977 
L 165.008101 255.330518 
L 189.187773 240.551467 
L 225.287002 221.712933 
L 225.96812 221.649504 
L 237.206559 212.705958 
L 252.531703 206.1093 
L 274.668023 194.37486 
L 285.906462 187.080478 
L 312.129487 170.84255 
L 339.033629 157.078369 
L 532.471007 40.114545 
" clip-path="url(#p4eaf4527bc)" style="fill: none; stroke: #1f77b4; stroke-width: 1.5; stroke-linecap: square"/>
    <defs>
     <path id="m42852f32cf" d="M 0 3 
C 0.795609 3 1.55874 2.683901 2.12132 2.12132 
C 2.683901 1.55874 3 0.795609 3 0 
C 3 -0.795609 2.683901 -1.55874 2.12132 -2.12132 
C 1.55874 -2.683901 0.795609 -3 0 -3 
C -0.795609 -3 -1.55874 -2.683901 -2.12132 -2.12132 
C -2.683901 -1.55874 -3 -0.795609 -3 0 
C -3 0.795609 -2.683901 1.55874 -2.12132 2.12132 
C -1.55874 2.683901 -0.795609 3 0 3 
z
" style="stroke: #1f77b4"/>
    </defs>
    <g clip-path="url(#p4eaf4527bc)">
     <use xlink:href="#m42852f32cf" x="76.803381" y="304.805455" style="fill: #1f77b4; stroke: #1f77b4"/>
     <use xlink:href="#m42852f32cf" x="77.14394" y="304.298019" style="fill: #1f77b4; stroke: #1f77b4"/>
     <use xlink:href="#m42852f32cf" x="77.484499" y="304.424878" style="fill: #1f77b4; stroke: #1f77b4"/>
     <use xlink:href="#m42852f32cf" x="77.825058" y="304.424878" style="fill: #1f77b4; stroke: #1f77b4"/>
     <use xlink:href="#m42852f32cf" x="78.165616" y="304.551737" style="fill: #1f77b4; stroke: #1f77b4"/>
     <use xlink:href="#m42852f32cf" x="78.506175" y="304.298019" style="fill: #1f77b4; stroke: #1f77b4"/>
     <use xlink:href="#m42852f32cf" x="78.846734" y="304.678596" style="fill: #1f77b4; stroke: #1f77b4"/>
     <use xlink:href="#m42852f32cf" x="79.187293" y="300.682543" style="fill: #1f77b4; stroke: #1f77b4"/>
     <use xlink:href="#m42852f32cf" x="79.527851" y="304.17116" style="fill: #1f77b4; stroke: #1f77b4"/>
     <use xlink:href="#m42852f32cf" x="79.86841" y="304.17116" style="fill: #1f77b4; stroke: #1f77b4"/>
     <use xlink:href="#m42852f32cf" x="80.208969" y="303.790584" style="fill: #1f77b4; stroke: #1f77b4"/>
     <use xlink:href="#m42852f32cf" x="80.549528" y="303.917443" style="fill: #1f77b4; stroke: #1f77b4"/>
     <use xlink:href="#m42852f32cf" x="80.890086" y="303.790584" style="fill: #1f77b4; stroke: #1f77b4"/>
     <use xlink:href="#m42852f32cf" x="81.230645" y="304.17116" style="fill: #1f77b4; stroke: #1f77b4"/>
     <use xlink:href="#m42852f32cf" x="81.571204" y="304.551737" style="fill: #1f77b4; stroke: #1f77b4"/>
     <use xlink:href="#m42852f32cf" x="81.911763" y="300.619114" style="fill: #1f77b4; stroke: #1f77b4"/>
     <use xlink:href="#m42852f32cf" x="82.252322" y="300.745973" style="fill: #1f77b4; stroke: #1f77b4"/>
     <use xlink:href="#m42852f32cf" x="82.59288" y="300.99969" style="fill: #1f77b4; stroke: #1f77b4"/>
     <use xlink:href="#m42852f32cf" x="82.933439" y="300.745973" style="fill: #1f77b4; stroke: #1f77b4"/>
     <use xlink:href="#m42852f32cf" x="83.273998" y="300.872831" style="fill: #1f77b4; stroke: #1f77b4"/>
     <use xlink:href="#m42852f32cf" x="83.614557" y="300.492255" style="fill: #1f77b4; stroke: #1f77b4"/>
     <use xlink:href="#m42852f32cf" x="83.955115" y="301.126549" style="fill: #1f77b4; stroke: #1f77b4"/>
     <use xlink:href="#m42852f32cf" x="84.295674" y="301.887702" style="fill: #1f77b4; stroke: #1f77b4"/>
     <use xlink:href="#m42852f32cf" x="84.636233" y="298.969949" style="fill: #1f77b4; stroke: #1f77b4"/>
     <use xlink:href="#m42852f32cf" x="84.976792" y="299.223667" style="fill: #1f77b4; stroke: #1f77b4"/>
     <use xlink:href="#m42852f32cf" x="85.31735" y="298.652802" style="fill: #1f77b4; stroke: #1f77b4"/>
     <use xlink:href="#m42852f32cf" x="85.657909" y="298.969949" style="fill: #1f77b4; stroke: #1f77b4"/>
     <use xlink:href="#m42852f32cf" x="85.998468" y="298.969949" style="fill: #1f77b4; stroke: #1f77b4"/>
     <use xlink:href="#m42852f32cf" x="86.339027" y="298.969949" style="fill: #1f77b4; stroke: #1f77b4"/>
     <use xlink:href="#m42852f32cf" x="86.679585" y="299.096808" style="fill: #1f77b4; stroke: #1f77b4"/>
     <use xlink:href="#m42852f32cf" x="87.020144" y="299.350526" style="fill: #1f77b4; stroke: #1f77b4"/>
     <use xlink:href="#m42852f32cf" x="87.360703" y="296.940208" style="fill: #1f77b4; stroke: #1f77b4"/>
     <use xlink:href="#m42852f32cf" x="87.701262" y="296.432773" style="fill: #1f77b4; stroke: #1f77b4"/>
     <use xlink:href="#m42852f32cf" x="88.04182" y="296.940208" style="fill: #1f77b4; stroke: #1f77b4"/>
     <use xlink:href="#m42852f32cf" x="88.382379" y="296.940208" style="fill: #1f77b4; stroke: #1f77b4"/>
     <use xlink:href="#m42852f32cf" x="88.722938" y="297.003638" style="fill: #1f77b4; stroke: #1f77b4"/>
     <use xlink:href="#m42852f32cf" x="89.063497" y="297.067067" style="fill: #1f77b4; stroke: #1f77b4"/>
     <use xlink:href="#m42852f32cf" x="89.404056" y="297.193926" style="fill: #1f77b4; stroke: #1f77b4"/>
     <use xlink:href="#m42852f32cf" x="89.744614" y="298.716232" style="fill: #1f77b4; stroke: #1f77b4"/>
     <use xlink:href="#m42852f32cf" x="90.085173" y="295.67162" style="fill: #1f77b4; stroke: #1f77b4"/>
     <use xlink:href="#m42852f32cf" x="90.425732" y="295.417903" style="fill: #1f77b4; stroke: #1f77b4"/>
     <use xlink:href="#m42852f32cf" x="90.766291" y="295.291044" style="fill: #1f77b4; stroke: #1f77b4"/>
     <use xlink:href="#m42852f32cf" x="91.106849" y="295.544761" style="fill: #1f77b4; stroke: #1f77b4"/>
     <use xlink:href="#m42852f32cf" x="91.447408" y="295.67162" style="fill: #1f77b4; stroke: #1f77b4"/>
     <use xlink:href="#m42852f32cf" x="91.787967" y="295.798479" style="fill: #1f77b4; stroke: #1f77b4"/>
     <use xlink:href="#m42852f32cf" x="92.128526" y="295.925338" style="fill: #1f77b4; stroke: #1f77b4"/>
     <use xlink:href="#m42852f32cf" x="92.469084" y="296.813349" style="fill: #1f77b4; stroke: #1f77b4"/>
     <use xlink:href="#m42852f32cf" x="92.809643" y="294.022456" style="fill: #1f77b4; stroke: #1f77b4"/>
     <use xlink:href="#m42852f32cf" x="93.150202" y="293.51502" style="fill: #1f77b4; stroke: #1f77b4"/>
     <use xlink:href="#m42852f32cf" x="94.171878" y="294.149314" style="fill: #1f77b4; stroke: #1f77b4"/>
     <use xlink:href="#m42852f32cf" x="94.512437" y="294.022456" style="fill: #1f77b4; stroke: #1f77b4"/>
     <use xlink:href="#m42852f32cf" x="94.852996" y="294.022456" style="fill: #1f77b4; stroke: #1f77b4"/>
     <use xlink:href="#m42852f32cf" x="95.193555" y="292.880726" style="fill: #1f77b4; stroke: #1f77b4"/>
     <use xlink:href="#m42852f32cf" x="95.874672" y="291.865856" style="fill: #1f77b4; stroke: #1f77b4"/>
     <use xlink:href="#m42852f32cf" x="96.215231" y="291.865856" style="fill: #1f77b4; stroke: #1f77b4"/>
     <use xlink:href="#m42852f32cf" x="96.896348" y="291.865856" style="fill: #1f77b4; stroke: #1f77b4"/>
     <use xlink:href="#m42852f32cf" x="97.236907" y="290.34355" style="fill: #1f77b4; stroke: #1f77b4"/>
     <use xlink:href="#m42852f32cf" x="97.577466" y="291.612138" style="fill: #1f77b4; stroke: #1f77b4"/>
     <use xlink:href="#m42852f32cf" x="97.918025" y="292.373291" style="fill: #1f77b4; stroke: #1f77b4"/>
     <use xlink:href="#m42852f32cf" x="98.599142" y="290.533838" style="fill: #1f77b4; stroke: #1f77b4"/>
     <use xlink:href="#m42852f32cf" x="98.939701" y="289.962974" style="fill: #1f77b4; stroke: #1f77b4"/>
     <use xlink:href="#m42852f32cf" x="99.28026" y="289.392109" style="fill: #1f77b4; stroke: #1f77b4"/>
     <use xlink:href="#m42852f32cf" x="99.620818" y="290.470409" style="fill: #1f77b4; stroke: #1f77b4"/>
     <use xlink:href="#m42852f32cf" x="99.961377" y="290.216691" style="fill: #1f77b4; stroke: #1f77b4"/>
     <use xlink:href="#m42852f32cf" x="100.301936" y="290.216691" style="fill: #1f77b4; stroke: #1f77b4"/>
     <use xlink:href="#m42852f32cf" x="100.642495" y="290.34355" style="fill: #1f77b4; stroke: #1f77b4"/>
     <use xlink:href="#m42852f32cf" x="101.323612" y="289.074962" style="fill: #1f77b4; stroke: #1f77b4"/>
     <use xlink:href="#m42852f32cf" x="102.00473" y="280.638851" style="fill: #1f77b4; stroke: #1f77b4"/>
     <use xlink:href="#m42852f32cf" x="102.345289" y="289.011533" style="fill: #1f77b4; stroke: #1f77b4"/>
     <use xlink:href="#m42852f32cf" x="104.388641" y="285.01548" style="fill: #1f77b4; stroke: #1f77b4"/>
     <use xlink:href="#m42852f32cf" x="105.410317" y="287.679515" style="fill: #1f77b4; stroke: #1f77b4"/>
     <use xlink:href="#m42852f32cf" x="106.091435" y="287.298939" style="fill: #1f77b4; stroke: #1f77b4"/>
     <use xlink:href="#m42852f32cf" x="106.431994" y="284.444615" style="fill: #1f77b4; stroke: #1f77b4"/>
     <use xlink:href="#m42852f32cf" x="107.113111" y="285.776633" style="fill: #1f77b4; stroke: #1f77b4"/>
     <use xlink:href="#m42852f32cf" x="108.134788" y="285.142339" style="fill: #1f77b4; stroke: #1f77b4"/>
     <use xlink:href="#m42852f32cf" x="109.497023" y="284.381186" style="fill: #1f77b4; stroke: #1f77b4"/>
     <use xlink:href="#m42852f32cf" x="111.199816" y="282.351445" style="fill: #1f77b4; stroke: #1f77b4"/>
     <use xlink:href="#m42852f32cf" x="113.243169" y="282.985739" style="fill: #1f77b4; stroke: #1f77b4"/>
     <use xlink:href="#m42852f32cf" x="118.35155" y="279.433692" style="fill: #1f77b4; stroke: #1f77b4"/>
     <use xlink:href="#m42852f32cf" x="124.481608" y="276.389081" style="fill: #1f77b4; stroke: #1f77b4"/>
     <use xlink:href="#m42852f32cf" x="126.524961" y="275.754787" style="fill: #1f77b4; stroke: #1f77b4"/>
     <use xlink:href="#m42852f32cf" x="127.546637" y="275.754787" style="fill: #1f77b4; stroke: #1f77b4"/>
     <use xlink:href="#m42852f32cf" x="129.249431" y="273.851905" style="fill: #1f77b4; stroke: #1f77b4"/>
     <use xlink:href="#m42852f32cf" x="135.720047" y="270.743864" style="fill: #1f77b4; stroke: #1f77b4"/>
     <use xlink:href="#m42852f32cf" x="151.385751" y="262.56147" style="fill: #1f77b4; stroke: #1f77b4"/>
     <use xlink:href="#m42852f32cf" x="153.769662" y="260.151153" style="fill: #1f77b4; stroke: #1f77b4"/>
     <use xlink:href="#m42852f32cf" x="160.580837" y="257.613977" style="fill: #1f77b4; stroke: #1f77b4"/>
     <use xlink:href="#m42852f32cf" x="165.008101" y="255.330518" style="fill: #1f77b4; stroke: #1f77b4"/>
     <use xlink:href="#m42852f32cf" x="189.187773" y="240.551467" style="fill: #1f77b4; stroke: #1f77b4"/>
     <use xlink:href="#m42852f32cf" x="225.287002" y="221.712933" style="fill: #1f77b4; stroke: #1f77b4"/>
     <use xlink:href="#m42852f32cf" x="225.96812" y="221.649504" style="fill: #1f77b4; stroke: #1f77b4"/>
     <use xlink:href="#m42852f32cf" x="237.206559" y="212.705958" style="fill: #1f77b4; stroke: #1f77b4"/>
     <use xlink:href="#m42852f32cf" x="252.531703" y="206.1093" style="fill: #1f77b4; stroke: #1f77b4"/>
     <use xlink:href="#m42852f32cf" x="274.668023" y="194.37486" style="fill: #1f77b4; stroke: #1f77b4"/>
     <use xlink:href="#m42852f32cf" x="285.906462" y="187.080478" style="fill: #1f77b4; stroke: #1f77b4"/>
     <use xlink:href="#m42852f32cf" x="312.129487" y="170.84255" style="fill: #1f77b4; stroke: #1f77b4"/>
     <use xlink:href="#m42852f32cf" x="339.033629" y="157.078369" style="fill: #1f77b4; stroke: #1f77b4"/>
     <use xlink:href="#m42852f32cf" x="532.471007" y="40.114545" style="fill: #1f77b4; stroke: #1f77b4"/>
    </g>
   </g>
   <g id="line2d_26">
    <path d="M 76.803381 299.604243 
L 77.14394 298.969949 
L 77.484499 298.969949 
L 77.825058 299.223667 
L 78.165616 299.350526 
L 78.506175 299.096808 
L 78.846734 299.604243 
L 79.187293 294.339603 
L 79.527851 299.096808 
L 79.86841 299.096808 
L 80.208969 298.716232 
L 80.549528 298.84309 
L 80.890086 298.589373 
L 81.230645 298.84309 
L 81.571204 299.350526 
L 81.911763 295.67162 
L 82.252322 296.432773 
L 82.59288 296.179055 
L 82.933439 296.305914 
L 83.273998 296.052197 
L 83.614557 295.67162 
L 83.955115 296.432773 
L 84.295674 296.686491 
L 84.636233 293.768738 
L 84.976792 294.022456 
L 85.31735 293.768738 
L 85.657909 294.022456 
L 85.998468 294.149314 
L 86.339027 294.149314 
L 86.679585 294.276173 
L 87.020144 294.022456 
L 87.360703 292.246432 
L 87.701262 291.485279 
L 88.04182 292.246432 
L 88.382379 292.119573 
L 88.722938 292.119573 
L 89.063497 292.373291 
L 89.404056 292.880726 
L 89.744614 293.261303 
L 90.085173 290.914415 
L 90.425732 290.597268 
L 90.766291 290.470409 
L 91.106849 291.104703 
L 91.447408 290.977844 
L 91.787967 290.977844 
L 92.128526 291.104703 
L 92.469084 291.738997 
L 92.809643 289.26525 
L 93.150202 288.567527 
L 94.171878 289.32868 
L 94.512437 289.26525 
L 94.852996 289.074962 
L 95.193555 286.981792 
L 95.874672 287.298939 
L 96.215231 287.489227 
L 96.896348 287.552656 
L 97.236907 284.508045 
L 97.577466 286.537786 
L 97.918025 287.806374 
L 98.599142 286.537786 
L 98.939701 285.903492 
L 99.28026 285.332627 
L 99.620818 286.537786 
L 99.961377 286.220639 
L 100.301936 285.269198 
L 100.642495 286.157209 
L 101.323612 284.508045 
L 102.00473 270.553576 
L 102.345289 284.761762 
L 104.388641 279.941128 
L 105.410317 282.85888 
L 106.091435 282.85888 
L 106.431994 280.575422 
L 107.113111 281.590292 
L 108.134788 280.76571 
L 109.497023 280.067986 
L 111.199816 272.773605 
L 113.243169 278.545681 
L 118.35155 275.627928 
L 124.481608 272.329599 
L 126.524961 271.314728 
L 127.546637 271.695305 
L 129.249431 269.665564 
L 135.720047 266.620952 
L 151.385751 258.248271 
L 153.769662 255.837954 
L 160.580837 253.364207 
L 165.008101 251.841901 
L 189.187773 237.062849 
L 225.287002 219.302616 
L 225.96812 219.112328 
L 237.206559 211.056793 
L 252.531703 204.523564 
L 274.668023 193.106271 
L 285.906462 186.065607 
L 312.129487 171.603703 
L 339.033629 159.488687 
L 532.471007 49.819244 
" clip-path="url(#p4eaf4527bc)" style="fill: none; stroke: #ff7f0e; stroke-width: 1.5; stroke-linecap: square"/>
    <defs>
     <path id="m77eea1f60e" d="M -3 3 
L 3 3 
L 3 -3 
L -3 -3 
z
" style="stroke: #ff7f0e; stroke-linejoin: miter"/>
    </defs>
    <g clip-path="url(#p4eaf4527bc)">
     <use xlink:href="#m77eea1f60e" x="76.803381" y="299.604243" style="fill: #ff7f0e; stroke: #ff7f0e; stroke-linejoin: miter"/>
     <use xlink:href="#m77eea1f60e" x="77.14394" y="298.969949" style="fill: #ff7f0e; stroke: #ff7f0e; stroke-linejoin: miter"/>
     <use xlink:href="#m77eea1f60e" x="77.484499" y="298.969949" style="fill: #ff7f0e; stroke: #ff7f0e; stroke-linejoin: miter"/>
     <use xlink:href="#m77eea1f60e" x="77.825058" y="299.223667" style="fill: #ff7f0e; stroke: #ff7f0e; stroke-linejoin: miter"/>
     <use xlink:href="#m77eea1f60e" x="78.165616" y="299.350526" style="fill: #ff7f0e; stroke: #ff7f0e; stroke-linejoin: miter"/>
     <use xlink:href="#m77eea1f60e" x="78.506175" y="299.096808" style="fill: #ff7f0e; stroke: #ff7f0e; stroke-linejoin: miter"/>
     <use xlink:href="#m77eea1f60e" x="78.846734" y="299.604243" style="fill: #ff7f0e; stroke: #ff7f0e; stroke-linejoin: miter"/>
     <use xlink:href="#m77eea1f60e" x="79.187293" y="294.339603" style="fill: #ff7f0e; stroke: #ff7f0e; stroke-linejoin: miter"/>
     <use xlink:href="#m77eea1f60e" x="79.527851" y="299.096808" style="fill: #ff7f0e; stroke: #ff7f0e; stroke-linejoin: miter"/>
     <use xlink:href="#m77eea1f60e" x="79.86841" y="299.096808" style="fill: #ff7f0e; stroke: #ff7f0e; stroke-linejoin: miter"/>
     <use xlink:href="#m77eea1f60e" x="80.208969" y="298.716232" style="fill: #ff7f0e; stroke: #ff7f0e; stroke-linejoin: miter"/>
     <use xlink:href="#m77eea1f60e" x="80.549528" y="298.84309" style="fill: #ff7f0e; stroke: #ff7f0e; stroke-linejoin: miter"/>
     <use xlink:href="#m77eea1f60e" x="80.890086" y="298.589373" style="fill: #ff7f0e; stroke: #ff7f0e; stroke-linejoin: miter"/>
     <use xlink:href="#m77eea1f60e" x="81.230645" y="298.84309" style="fill: #ff7f0e; stroke: #ff7f0e; stroke-linejoin: miter"/>
     <use xlink:href="#m77eea1f60e" x="81.571204" y="299.350526" style="fill: #ff7f0e; stroke: #ff7f0e; stroke-linejoin: miter"/>
     <use xlink:href="#m77eea1f60e" x="81.911763" y="295.67162" style="fill: #ff7f0e; stroke: #ff7f0e; stroke-linejoin: miter"/>
     <use xlink:href="#m77eea1f60e" x="82.252322" y="296.432773" style="fill: #ff7f0e; stroke: #ff7f0e; stroke-linejoin: miter"/>
     <use xlink:href="#m77eea1f60e" x="82.59288" y="296.179055" style="fill: #ff7f0e; stroke: #ff7f0e; stroke-linejoin: miter"/>
     <use xlink:href="#m77eea1f60e" x="82.933439" y="296.305914" style="fill: #ff7f0e; stroke: #ff7f0e; stroke-linejoin: miter"/>
     <use xlink:href="#m77eea1f60e" x="83.273998" y="296.052197" style="fill: #ff7f0e; stroke: #ff7f0e; stroke-linejoin: miter"/>
     <use xlink:href="#m77eea1f60e" x="83.614557" y="295.67162" style="fill: #ff7f0e; stroke: #ff7f0e; stroke-linejoin: miter"/>
     <use xlink:href="#m77eea1f60e" x="83.955115" y="296.432773" style="fill: #ff7f0e; stroke: #ff7f0e; stroke-linejoin: miter"/>
     <use xlink:href="#m77eea1f60e" x="84.295674" y="296.686491" style="fill: #ff7f0e; stroke: #ff7f0e; stroke-linejoin: miter"/>
     <use xlink:href="#m77eea1f60e" x="84.636233" y="293.768738" style="fill: #ff7f0e; stroke: #ff7f0e; stroke-linejoin: miter"/>
     <use xlink:href="#m77eea1f60e" x="84.976792" y="294.022456" style="fill: #ff7f0e; stroke: #ff7f0e; stroke-linejoin: miter"/>
     <use xlink:href="#m77eea1f60e" x="85.31735" y="293.768738" style="fill: #ff7f0e; stroke: #ff7f0e; stroke-linejoin: miter"/>
     <use xlink:href="#m77eea1f60e" x="85.657909" y="294.022456" style="fill: #ff7f0e; stroke: #ff7f0e; stroke-linejoin: miter"/>
     <use xlink:href="#m77eea1f60e" x="85.998468" y="294.149314" style="fill: #ff7f0e; stroke: #ff7f0e; stroke-linejoin: miter"/>
     <use xlink:href="#m77eea1f60e" x="86.339027" y="294.149314" style="fill: #ff7f0e; stroke: #ff7f0e; stroke-linejoin: miter"/>
     <use xlink:href="#m77eea1f60e" x="86.679585" y="294.276173" style="fill: #ff7f0e; stroke: #ff7f0e; stroke-linejoin: miter"/>
     <use xlink:href="#m77eea1f60e" x="87.020144" y="294.022456" style="fill: #ff7f0e; stroke: #ff7f0e; stroke-linejoin: miter"/>
     <use xlink:href="#m77eea1f60e" x="87.360703" y="292.246432" style="fill: #ff7f0e; stroke: #ff7f0e; stroke-linejoin: miter"/>
     <use xlink:href="#m77eea1f60e" x="87.701262" y="291.485279" style="fill: #ff7f0e; stroke: #ff7f0e; stroke-linejoin: miter"/>
     <use xlink:href="#m77eea1f60e" x="88.04182" y="292.246432" style="fill: #ff7f0e; stroke: #ff7f0e; stroke-linejoin: miter"/>
     <use xlink:href="#m77eea1f60e" x="88.382379" y="292.119573" style="fill: #ff7f0e; stroke: #ff7f0e; stroke-linejoin: miter"/>
     <use xlink:href="#m77eea1f60e" x="88.722938" y="292.119573" style="fill: #ff7f0e; stroke: #ff7f0e; stroke-linejoin: miter"/>
     <use xlink:href="#m77eea1f60e" x="89.063497" y="292.373291" style="fill: #ff7f0e; stroke: #ff7f0e; stroke-linejoin: miter"/>
     <use xlink:href="#m77eea1f60e" x="89.404056" y="292.880726" style="fill: #ff7f0e; stroke: #ff7f0e; stroke-linejoin: miter"/>
     <use xlink:href="#m77eea1f60e" x="89.744614" y="293.261303" style="fill: #ff7f0e; stroke: #ff7f0e; stroke-linejoin: miter"/>
     <use xlink:href="#m77eea1f60e" x="90.085173" y="290.914415" style="fill: #ff7f0e; stroke: #ff7f0e; stroke-linejoin: miter"/>
     <use xlink:href="#m77eea1f60e" x="90.425732" y="290.597268" style="fill: #ff7f0e; stroke: #ff7f0e; stroke-linejoin: miter"/>
     <use xlink:href="#m77eea1f60e" x="90.766291" y="290.470409" style="fill: #ff7f0e; stroke: #ff7f0e; stroke-linejoin: miter"/>
     <use xlink:href="#m77eea1f60e" x="91.106849" y="291.104703" style="fill: #ff7f0e; stroke: #ff7f0e; stroke-linejoin: miter"/>
     <use xlink:href="#m77eea1f60e" x="91.447408" y="290.977844" style="fill: #ff7f0e; stroke: #ff7f0e; stroke-linejoin: miter"/>
     <use xlink:href="#m77eea1f60e" x="91.787967" y="290.977844" style="fill: #ff7f0e; stroke: #ff7f0e; stroke-linejoin: miter"/>
     <use xlink:href="#m77eea1f60e" x="92.128526" y="291.104703" style="fill: #ff7f0e; stroke: #ff7f0e; stroke-linejoin: miter"/>
     <use xlink:href="#m77eea1f60e" x="92.469084" y="291.738997" style="fill: #ff7f0e; stroke: #ff7f0e; stroke-linejoin: miter"/>
     <use xlink:href="#m77eea1f60e" x="92.809643" y="289.26525" style="fill: #ff7f0e; stroke: #ff7f0e; stroke-linejoin: miter"/>
     <use xlink:href="#m77eea1f60e" x="93.150202" y="288.567527" style="fill: #ff7f0e; stroke: #ff7f0e; stroke-linejoin: miter"/>
     <use xlink:href="#m77eea1f60e" x="94.171878" y="289.32868" style="fill: #ff7f0e; stroke: #ff7f0e; stroke-linejoin: miter"/>
     <use xlink:href="#m77eea1f60e" x="94.512437" y="289.26525" style="fill: #ff7f0e; stroke: #ff7f0e; stroke-linejoin: miter"/>
     <use xlink:href="#m77eea1f60e" x="94.852996" y="289.074962" style="fill: #ff7f0e; stroke: #ff7f0e; stroke-linejoin: miter"/>
     <use xlink:href="#m77eea1f60e" x="95.193555" y="286.981792" style="fill: #ff7f0e; stroke: #ff7f0e; stroke-linejoin: miter"/>
     <use xlink:href="#m77eea1f60e" x="95.874672" y="287.298939" style="fill: #ff7f0e; stroke: #ff7f0e; stroke-linejoin: miter"/>
     <use xlink:href="#m77eea1f60e" x="96.215231" y="287.489227" style="fill: #ff7f0e; stroke: #ff7f0e; stroke-linejoin: miter"/>
     <use xlink:href="#m77eea1f60e" x="96.896348" y="287.552656" style="fill: #ff7f0e; stroke: #ff7f0e; stroke-linejoin: miter"/>
     <use xlink:href="#m77eea1f60e" x="97.236907" y="284.508045" style="fill: #ff7f0e; stroke: #ff7f0e; stroke-linejoin: miter"/>
     <use xlink:href="#m77eea1f60e" x="97.577466" y="286.537786" style="fill: #ff7f0e; stroke: #ff7f0e; stroke-linejoin: miter"/>
     <use xlink:href="#m77eea1f60e" x="97.918025" y="287.806374" style="fill: #ff7f0e; stroke: #ff7f0e; stroke-linejoin: miter"/>
     <use xlink:href="#m77eea1f60e" x="98.599142" y="286.537786" style="fill: #ff7f0e; stroke: #ff7f0e; stroke-linejoin: miter"/>
     <use xlink:href="#m77eea1f60e" x="98.939701" y="285.903492" style="fill: #ff7f0e; stroke: #ff7f0e; stroke-linejoin: miter"/>
     <use xlink:href="#m77eea1f60e" x="99.28026" y="285.332627" style="fill: #ff7f0e; stroke: #ff7f0e; stroke-linejoin: miter"/>
     <use xlink:href="#m77eea1f60e" x="99.620818" y="286.537786" style="fill: #ff7f0e; stroke: #ff7f0e; stroke-linejoin: miter"/>
     <use xlink:href="#m77eea1f60e" x="99.961377" y="286.220639" style="fill: #ff7f0e; stroke: #ff7f0e; stroke-linejoin: miter"/>
     <use xlink:href="#m77eea1f60e" x="100.301936" y="285.269198" style="fill: #ff7f0e; stroke: #ff7f0e; stroke-linejoin: miter"/>
     <use xlink:href="#m77eea1f60e" x="100.642495" y="286.157209" style="fill: #ff7f0e; stroke: #ff7f0e; stroke-linejoin: miter"/>
     <use xlink:href="#m77eea1f60e" x="101.323612" y="284.508045" style="fill: #ff7f0e; stroke: #ff7f0e; stroke-linejoin: miter"/>
     <use xlink:href="#m77eea1f60e" x="102.00473" y="270.553576" style="fill: #ff7f0e; stroke: #ff7f0e; stroke-linejoin: miter"/>
     <use xlink:href="#m77eea1f60e" x="102.345289" y="284.761762" style="fill: #ff7f0e; stroke: #ff7f0e; stroke-linejoin: miter"/>
     <use xlink:href="#m77eea1f60e" x="104.388641" y="279.941128" style="fill: #ff7f0e; stroke: #ff7f0e; stroke-linejoin: miter"/>
     <use xlink:href="#m77eea1f60e" x="105.410317" y="282.85888" style="fill: #ff7f0e; stroke: #ff7f0e; stroke-linejoin: miter"/>
     <use xlink:href="#m77eea1f60e" x="106.091435" y="282.85888" style="fill: #ff7f0e; stroke: #ff7f0e; stroke-linejoin: miter"/>
     <use xlink:href="#m77eea1f60e" x="106.431994" y="280.575422" style="fill: #ff7f0e; stroke: #ff7f0e; stroke-linejoin: miter"/>
     <use xlink:href="#m77eea1f60e" x="107.113111" y="281.590292" style="fill: #ff7f0e; stroke: #ff7f0e; stroke-linejoin: miter"/>
     <use xlink:href="#m77eea1f60e" x="108.134788" y="280.76571" style="fill: #ff7f0e; stroke: #ff7f0e; stroke-linejoin: miter"/>
     <use xlink:href="#m77eea1f60e" x="109.497023" y="280.067986" style="fill: #ff7f0e; stroke: #ff7f0e; stroke-linejoin: miter"/>
     <use xlink:href="#m77eea1f60e" x="111.199816" y="272.773605" style="fill: #ff7f0e; stroke: #ff7f0e; stroke-linejoin: miter"/>
     <use xlink:href="#m77eea1f60e" x="113.243169" y="278.545681" style="fill: #ff7f0e; stroke: #ff7f0e; stroke-linejoin: miter"/>
     <use xlink:href="#m77eea1f60e" x="118.35155" y="275.627928" style="fill: #ff7f0e; stroke: #ff7f0e; stroke-linejoin: miter"/>
     <use xlink:href="#m77eea1f60e" x="124.481608" y="272.329599" style="fill: #ff7f0e; stroke: #ff7f0e; stroke-linejoin: miter"/>
     <use xlink:href="#m77eea1f60e" x="126.524961" y="271.314728" style="fill: #ff7f0e; stroke: #ff7f0e; stroke-linejoin: miter"/>
     <use xlink:href="#m77eea1f60e" x="127.546637" y="271.695305" style="fill: #ff7f0e; stroke: #ff7f0e; stroke-linejoin: miter"/>
     <use xlink:href="#m77eea1f60e" x="129.249431" y="269.665564" style="fill: #ff7f0e; stroke: #ff7f0e; stroke-linejoin: miter"/>
     <use xlink:href="#m77eea1f60e" x="135.720047" y="266.620952" style="fill: #ff7f0e; stroke: #ff7f0e; stroke-linejoin: miter"/>
     <use xlink:href="#m77eea1f60e" x="151.385751" y="258.248271" style="fill: #ff7f0e; stroke: #ff7f0e; stroke-linejoin: miter"/>
     <use xlink:href="#m77eea1f60e" x="153.769662" y="255.837954" style="fill: #ff7f0e; stroke: #ff7f0e; stroke-linejoin: miter"/>
     <use xlink:href="#m77eea1f60e" x="160.580837" y="253.364207" style="fill: #ff7f0e; stroke: #ff7f0e; stroke-linejoin: miter"/>
     <use xlink:href="#m77eea1f60e" x="165.008101" y="251.841901" style="fill: #ff7f0e; stroke: #ff7f0e; stroke-linejoin: miter"/>
     <use xlink:href="#m77eea1f60e" x="189.187773" y="237.062849" style="fill: #ff7f0e; stroke: #ff7f0e; stroke-linejoin: miter"/>
     <use xlink:href="#m77eea1f60e" x="225.287002" y="219.302616" style="fill: #ff7f0e; stroke: #ff7f0e; stroke-linejoin: miter"/>
     <use xlink:href="#m77eea1f60e" x="225.96812" y="219.112328" style="fill: #ff7f0e; stroke: #ff7f0e; stroke-linejoin: miter"/>
     <use xlink:href="#m77eea1f60e" x="237.206559" y="211.056793" style="fill: #ff7f0e; stroke: #ff7f0e; stroke-linejoin: miter"/>
     <use xlink:href="#m77eea1f60e" x="252.531703" y="204.523564" style="fill: #ff7f0e; stroke: #ff7f0e; stroke-linejoin: miter"/>
     <use xlink:href="#m77eea1f60e" x="274.668023" y="193.106271" style="fill: #ff7f0e; stroke: #ff7f0e; stroke-linejoin: miter"/>
     <use xlink:href="#m77eea1f60e" x="285.906462" y="186.065607" style="fill: #ff7f0e; stroke: #ff7f0e; stroke-linejoin: miter"/>
     <use xlink:href="#m77eea1f60e" x="312.129487" y="171.603703" style="fill: #ff7f0e; stroke: #ff7f0e; stroke-linejoin: miter"/>
     <use xlink:href="#m77eea1f60e" x="339.033629" y="159.488687" style="fill: #ff7f0e; stroke: #ff7f0e; stroke-linejoin: miter"/>
     <use xlink:href="#m77eea1f60e" x="532.471007" y="49.819244" style="fill: #ff7f0e; stroke: #ff7f0e; stroke-linejoin: miter"/>
    </g>
   </g>
   <g id="patch_3">
    <path d="M 54.02 318.04 
L 54.02 26.88 
" style="fill: none; stroke: #000000; stroke-width: 0.8; stroke-linejoin: miter; stroke-linecap: square"/>
   </g>
   <g id="patch_4">
    <path d="M 555.254389 318.04 
L 555.254389 26.88 
" style="fill: none; stroke: #000000; stroke-width: 0.8; stroke-linejoin: miter; stroke-linecap: square"/>
   </g>
   <g id="patch_5">
    <path d="M 54.02 318.04 
L 555.254389 318.04 
" style="fill: none; stroke: #000000; stroke-width: 0.8; stroke-linejoin: miter; stroke-linecap: square"/>
   </g>
   <g id="patch_6">
    <path d="M 54.02 26.88 
L 555.254389 26.88 
" style="fill: none; stroke: #000000; stroke-width: 0.8; stroke-linejoin: miter; stroke-linecap: square"/>
   </g>
   <g id="text_15">
    <!-- Залежність часу від довжини повідомлення -->
    <g transform="translate(164.603757 20.88) scale(0.12 -0.12)">
     <defs>
      <path id="DejaVuSans-417" d="M 1828 4750 
Q 2597 4750 3084 4423 
Q 3572 4097 3572 3541 
Q 3572 3153 3350 2886 
Q 3128 2619 2719 2516 
Q 3172 2419 3426 2112 
Q 3681 1806 3681 1356 
Q 3681 638 3126 273 
Q 2572 -91 1828 -91 
Q 1447 -91 1003 12 
Q 559 116 422 203 
L 422 853 
Q 900 575 1164 508 
Q 1428 441 1816 441 
Q 2403 441 2728 666 
Q 3053 891 3053 1356 
Q 3053 1769 2764 2001 
Q 2475 2234 1866 2234 
L 1228 2234 
L 1228 2753 
L 1891 2753 
Q 2450 2753 2697 2939 
Q 2944 3125 2944 3475 
Q 2944 3834 2689 4026 
Q 2434 4219 1816 4219 
Q 1397 4219 1253 4181 
Q 1109 4144 469 3903 
L 469 4519 
Q 822 4644 1190 4697 
Q 1559 4750 1828 4750 
z
" transform="scale(0.015625)"/>
      <path id="DejaVuSans-44c" d="M 2781 1038 
Q 2781 1319 2576 1466 
Q 2372 1613 1978 1613 
L 1159 1613 
L 1159 459 
L 1978 459 
Q 2372 459 2576 607 
Q 2781 756 2781 1038 
z
M 581 3500 
L 1159 3500 
L 1159 2072 
L 2003 2072 
Q 2672 2072 3033 1817 
Q 3394 1563 3394 1038 
Q 3394 513 3033 256 
Q 2672 0 2003 0 
L 581 0 
L 581 3500 
z
" transform="scale(0.015625)"/>
      <path id="DejaVuSans-447" d="M 2625 0 
L 2625 1472 
L 1553 1472 
Q 1075 1472 756 1769 
Q 469 2038 469 2613 
L 469 3500 
L 1044 3500 
L 1044 2666 
Q 1044 2300 1206 2116 
Q 1372 1931 1697 1931 
L 2625 1931 
L 2625 3500 
L 3200 3500 
L 3200 0 
L 2625 0 
z
" transform="scale(0.015625)"/>
      <path id="DejaVuSans-443" d="M 2059 -325 
Q 1816 -950 1584 -1140 
Q 1353 -1331 966 -1331 
L 506 -1331 
L 506 -850 
L 844 -850 
Q 1081 -850 1212 -737 
Q 1344 -625 1503 -206 
L 1606 56 
L 191 3500 
L 800 3500 
L 1894 763 
L 2988 3500 
L 3597 3500 
L 2059 -325 
z
" transform="scale(0.015625)"/>
     </defs>
     <use xlink:href="#DejaVuSans-417"/>
     <use xlink:href="#DejaVuSans-430" transform="translate(64.111328 0)"/>
     <use xlink:href="#DejaVuSans-43b" transform="translate(125.390625 0)"/>
     <use xlink:href="#DejaVuSans-435" transform="translate(189.306641 0)"/>
     <use xlink:href="#DejaVuSans-436" transform="translate(250.830078 0)"/>
     <use xlink:href="#DejaVuSans-43d" transform="translate(340.917969 0)"/>
     <use xlink:href="#DejaVuSans-456" transform="translate(406.298828 0)"/>
     <use xlink:href="#DejaVuSans-441" transform="translate(434.082031 0)"/>
     <use xlink:href="#DejaVuSans-442" transform="translate(489.0625 0)"/>
     <use xlink:href="#DejaVuSans-44c" transform="translate(547.314453 0)"/>
     <use xlink:href="#DejaVuSans-20" transform="translate(606.25 0)"/>
     <use xlink:href="#DejaVuSans-447" transform="translate(638.037109 0)"/>
     <use xlink:href="#DejaVuSans-430" transform="translate(697.119141 0)"/>
     <use xlink:href="#DejaVuSans-441" transform="translate(758.398438 0)"/>
     <use xlink:href="#DejaVuSans-443" transform="translate(813.378906 0)"/>
     <use xlink:href="#DejaVuSans-20" transform="translate(872.558594 0)"/>
     <use xlink:href="#DejaVuSans-432" transform="translate(904.345703 0)"/>
     <use xlink:href="#DejaVuSans-456" transform="translate(963.28125 0)"/>
     <use xlink:href="#DejaVuSans-434" transform="translate(991.064453 0)"/>
     <use xlink:href="#DejaVuSans-20" transform="translate(1060.205078 0)"/>
     <use xlink:href="#DejaVuSans-434" transform="translate(1091.992188 0)"/>
     <use xlink:href="#DejaVuSans-43e" transform="translate(1161.132812 0)"/>
     <use xlink:href="#DejaVuSans-432" transform="translate(1222.314453 0)"/>
     <use xlink:href="#DejaVuSans-436" transform="translate(1281.25 0)"/>
     <use xlink:href="#DejaVuSans-438" transform="translate(1371.337891 0)"/>
     <use xlink:href="#DejaVuSans-43d" transform="translate(1436.328125 0)"/>
     <use xlink:href="#DejaVuSans-438" transform="translate(1501.708984 0)"/>
     <use xlink:href="#DejaVuSans-20" transform="translate(1566.699219 0)"/>
     <use xlink:href="#DejaVuSans-43f" transform="translate(1598.486328 0)"/>
     <use xlink:href="#DejaVuSans-43e" transform="translate(1663.867188 0)"/>
     <use xlink:href="#DejaVuSans-432" transform="translate(1725.048828 0)"/>
     <use xlink:href="#DejaVuSans-456" transform="translate(1783.984375 0)"/>
     <use xlink:href="#DejaVuSans-434" transform="translate(1811.767578 0)"/>
     <use xlink:href="#DejaVuSans-43e" transform="translate(1880.908203 0)"/>
     <use xlink:href="#DejaVuSans-43c" transform="translate(1942.089844 0)"/>
     <use xlink:href="#DejaVuSans-43b" transform="translate(2017.529297 0)"/>
     <use xlink:href="#DejaVuSans-435" transform="translate(2081.445312 0)"/>
     <use xlink:href="#DejaVuSans-43d" transform="translate(2142.96875 0)"/>
     <use xlink:href="#DejaVuSans-43d" transform="translate(2208.349609 0)"/>
     <use xlink:href="#DejaVuSans-44f" transform="translate(2273.730469 0)"/>
    </g>
   </g>
   <g id="legend_1">
    <g id="patch_7">
     <path d="M 61.02 64.23625 
L 250.62625 64.23625 
Q 252.62625 64.23625 252.62625 62.23625 
L 252.62625 33.88 
Q 252.62625 31.88 250.62625 31.88 
L 61.02 31.88 
Q 59.02 31.88 59.02 33.88 
L 59.02 62.23625 
Q 59.02 64.23625 61.02 64.23625 
z
" style="fill: #ffffff; opacity: 0.8; stroke: #cccccc; stroke-linejoin: miter"/>
    </g>
    <g id="line2d_27">
     <path d="M 63.02 39.978437 
L 73.02 39.978437 
L 83.02 39.978437 
" style="fill: none; stroke: #1f77b4; stroke-width: 1.5; stroke-linecap: square"/>
     <g>
      <use xlink:href="#m42852f32cf" x="73.02" y="39.978437" style="fill: #1f77b4; stroke: #1f77b4"/>
     </g>
    </g>
    <g id="text_16">
     <!-- Зашифрування (медіана, мс) -->
     <g transform="translate(91.02 43.478437) scale(0.1 -0.1)">
      <defs>
       <path id="DejaVuSans-448" d="M 3216 459 
L 4697 459 
L 4697 3500 
L 5275 3500 
L 5275 0 
L 581 0 
L 581 3500 
L 1159 3500 
L 1159 459 
L 2638 459 
L 2638 3500 
L 3216 3500 
L 3216 459 
z
" transform="scale(0.015625)"/>
       <path id="DejaVuSans-444" d="M 947 1747 
Q 947 1013 1173 702 
Q 1400 391 1784 391 
Q 2091 391 2447 916 
L 2447 2578 
Q 2091 3103 1784 3103 
Q 1400 3103 1173 2792 
Q 947 2481 947 1747 
z
M 2447 -1331 
L 2447 447 
Q 2269 153 2064 31 
Q 1859 -91 1600 -91 
Q 1078 -91 714 392 
Q 350 875 350 1734 
Q 350 2594 714 3089 
Q 1078 3584 1600 3584 
Q 1859 3584 2064 3465 
Q 2269 3347 2447 3053 
L 2447 4666 
L 3025 4666 
L 3025 3053 
Q 3203 3347 3408 3465 
Q 3613 3584 3872 3584 
Q 4394 3584 4758 3089 
Q 5122 2594 5122 1734 
Q 5122 875 4758 392 
Q 4394 -91 3872 -91 
Q 3613 -91 3408 31 
Q 3203 153 3025 447 
L 3025 -1331 
L 2447 -1331 
z
M 4525 1747 
Q 4525 2481 4298 2792 
Q 4072 3103 3688 3103 
Q 3381 3103 3025 2578 
L 3025 916 
Q 3381 391 3688 391 
Q 4072 391 4298 702 
Q 4525 1013 4525 1747 
z
" transform="scale(0.015625)"/>
       <path id="DejaVuSans-440" d="M 1159 525 
L 1159 -1331 
L 581 -1331 
L 581 3500 
L 1159 3500 
L 1159 2969 
Q 1341 3281 1617 3432 
Q 1894 3584 2278 3584 
Q 2916 3584 3314 3078 
Q 3713 2572 3713 1747 
Q 3713 922 3314 415 
Q 2916 -91 2278 -91 
Q 1894 -91 1617 61 
Q 1341 213 1159 525 
z
M 3116 1747 
Q 3116 2381 2855 2742 
Q 2594 3103 2138 3103 
Q 1681 3103 1420 2742 
Q 1159 2381 1159 1747 
Q 1159 1113 1420 752 
Q 1681 391 2138 391 
Q 2594 391 2855 752 
Q 3116 1113 3116 1747 
z
" transform="scale(0.015625)"/>
      </defs>
      <use xlink:href="#DejaVuSans-417"/>
      <use xlink:href="#DejaVuSans-430" transform="translate(64.111328 0)"/>
      <use xlink:href="#DejaVuSans-448" transform="translate(125.390625 0)"/>
      <use xlink:href="#DejaVuSans-438" transform="translate(216.894531 0)"/>
      <use xlink:href="#DejaVuSans-444" transform="translate(281.884766 0)"/>
      <use xlink:href="#DejaVuSans-440" transform="translate(367.382812 0)"/>
      <use xlink:href="#DejaVuSans-443" transform="translate(430.859375 0)"/>
      <use xlink:href="#DejaVuSans-432" transform="translate(490.039062 0)"/>
      <use xlink:href="#DejaVuSans-430" transform="translate(548.974609 0)"/>
      <use xlink:href="#DejaVuSans-43d" transform="translate(610.253906 0)"/>
      <use xlink:href="#DejaVuSans-43d" transform="translate(675.634766 0)"/>
      <use xlink:href="#DejaVuSans-44f" transform="translate(741.015625 0)"/>
      <use xlink:href="#DejaVuSans-20" transform="translate(801.171875 0)"/>
      <use xlink:href="#DejaVuSans-28" transform="translate(832.958984 0)"/>
      <use xlink:href="#DejaVuSans-43c" transform="translate(871.972656 0)"/>
      <use xlink:href="#DejaVuSans-435" transform="translate(947.412109 0)"/>
      <use xlink:href="#DejaVuSans-434" transform="translate(1008.935547 0)"/>
      <use xlink:href="#DejaVuSans-456" transform="translate(1078.076172 0)"/>
      <use xlink:href="#DejaVuSans-430" transform="translate(1105.859375 0)"/>
      <use xlink:href="#DejaVuSans-43d" transform="translate(1167.138672 0)"/>
      <use xlink:href="#DejaVuSans-430" transform="translate(1232.519531 0)"/>
      <use xlink:href="#DejaVuSans-2c" transform="translate(1293.798828 0)"/>
      <use xlink:href="#DejaVuSans-20" transform="translate(1325.585938 0)"/>
      <use xlink:href="#DejaVuSans-43c" transform="translate(1357.373047 0)"/>
      <use xlink:href="#DejaVuSans-441" transform="translate(1432.8125 0)"/>
      <use xlink:href="#DejaVuSans-29" transform="translate(1487.792969 0)"/>
     </g>
    </g>
    <g id="line2d_28">
     <path d="M 63.02 54.656563 
L 73.02 54.656563 
L 83.02 54.656563 
" style="fill: none; stroke: #ff7f0e; stroke-width: 1.5; stroke-linecap: square"/>
     <g>
      <use xlink:href="#m77eea1f60e" x="73.02" y="54.656563" style="fill: #ff7f0e; stroke: #ff7f0e; stroke-linejoin: miter"/>
     </g>
    </g>
    <g id="text_17">
     <!-- Розшифрування (медіана, мс) -->
     <g transform="translate(91.02 58.156563) scale(0.1 -0.1)">
      <defs>
       <path id="DejaVuSans-420" d="M 1259 4147 
L 1259 2394 
L 2053 2394 
Q 2494 2394 2734 2622 
Q 2975 2850 2975 3272 
Q 2975 3691 2734 3919 
Q 2494 4147 2053 4147 
L 1259 4147 
z
M 628 4666 
L 2053 4666 
Q 2838 4666 3239 4311 
Q 3641 3956 3641 3272 
Q 3641 2581 3239 2228 
Q 2838 1875 2053 1875 
L 1259 1875 
L 1259 0 
L 628 0 
L 628 4666 
z
" transform="scale(0.015625)"/>
       <path id="DejaVuSans-437" d="M 2206 1888 
Q 2594 1813 2809 1584 
Q 3025 1356 3025 1019 
Q 3025 478 2622 193 
Q 2219 -91 1475 -91 
Q 1225 -91 961 -47 
Q 697 -3 416 84 
L 416 619 
Q 638 503 903 445 
Q 1169 388 1459 388 
Q 1931 388 2195 563 
Q 2459 738 2459 1019 
Q 2459 1294 2225 1461 
Q 1991 1628 1563 1628 
L 1100 1628 
L 1100 2103 
L 1584 2103 
Q 1947 2103 2158 2242 
Q 2369 2381 2369 2600 
Q 2369 2800 2151 2944 
Q 1934 3088 1563 3088 
Q 1341 3088 1089 3047 
Q 838 3006 534 2916 
L 534 3438 
Q 841 3513 1106 3550 
Q 1372 3588 1609 3588 
Q 2222 3588 2576 3342 
Q 2931 3097 2931 2656 
Q 2931 2366 2743 2164 
Q 2556 1963 2206 1888 
z
" transform="scale(0.015625)"/>
      </defs>
      <use xlink:href="#DejaVuSans-420"/>
      <use xlink:href="#DejaVuSans-43e" transform="translate(60.302734 0)"/>
      <use xlink:href="#DejaVuSans-437" transform="translate(121.484375 0)"/>
      <use xlink:href="#DejaVuSans-448" transform="translate(174.658203 0)"/>
      <use xlink:href="#DejaVuSans-438" transform="translate(266.162109 0)"/>
      <use xlink:href="#DejaVuSans-444" transform="translate(331.152344 0)"/>
      <use xlink:href="#DejaVuSans-440" transform="translate(416.650391 0)"/>
      <use xlink:href="#DejaVuSans-443" transform="translate(480.126953 0)"/>
      <use xlink:href="#DejaVuSans-432" transform="translate(539.306641 0)"/>
      <use xlink:href="#DejaVuSans-430" transform="translate(598.242188 0)"/>
      <use xlink:href="#DejaVuSans-43d" transform="translate(659.521484 0)"/>
      <use xlink:href="#DejaVuSans-43d" transform="translate(724.902344 0)"/>
      <use xlink:href="#DejaVuSans-44f" transform="translate(790.283203 0)"/>
      <use xlink:href="#DejaVuSans-20" transform="translate(850.439453 0)"/>
      <use xlink:href="#DejaVuSans-28" transform="translate(882.226562 0)"/>
      <use xlink:href="#DejaVuSans-43c" transform="translate(921.240234 0)"/>
      <use xlink:href="#DejaVuSans-435" transform="translate(996.679688 0)"/>
      <use xlink:href="#DejaVuSans-434" transform="translate(1058.203125 0)"/>
      <use xlink:href="#DejaVuSans-456" transform="translate(1127.34375 0)"/>
      <use xlink:href="#DejaVuSans-430" transform="translate(1155.126953 0)"/>
      <use xlink:href="#DejaVuSans-43d" transform="translate(1216.40625 0)"/>
      <use xlink:href="#DejaVuSans-430" transform="translate(1281.787109 0)"/>
      <use xlink:href="#DejaVuSans-2c" transform="translate(1343.066406 0)"/>
      <use xlink:href="#DejaVuSans-20" transform="translate(1374.853516 0)"/>
      <use xlink:href="#DejaVuSans-43c" transform="translate(1406.640625 0)"/>
      <use xlink:href="#DejaVuSans-441" transform="translate(1482.080078 0)"/>
      <use xlink:href="#DejaVuSans-29" transform="translate(1537.060547 0)"/>
     </g>
    </g>
   </g>
  </g>
 </g>
 <defs>
  <clipPath id="p4eaf4527bc">
   <rect x="54.02" y="26.88" width="501.234389" height="291.16"/>
  </clipPath>
 </defs>
</svg>
